{"glyphs":{"0":{"ha":1560,"x_min":0,"x_max":1389,"o":"m 694 434 l 434 694 l 694 955 l 955 694 l 694 434 l 694 434 m 1042 347 l 1042 1042 l 347 1042 l 347 347 l 1042 347 m 347 0 l 0 347 l 0 1042 l 347 1389 l 1042 1389 l 1389 1042 l 1389 347 l 1042 0 l 347 0 z "},"1":{"ha":865,"x_min":0,"x_max":694,"o":"m 347 0 l 347 1042 l 0 1042 l 0 1389 l 347 1389 l 694 1042 l 694 0 l 347 0 z "},"2":{"ha":1560,"x_min":0,"x_max":1389,"o":"m 0 0 l 0 521 l 347 868 l 1042 868 l 1042 1042 l 0 1042 l 347 1389 l 1042 1389 l 1389 1042 l 1389 868 l 1042 521 l 347 521 l 347 347 l 1389 347 l 1389 0 l 0 0 z "},"3":{"ha":1560,"x_min":0,"x_max":1389,"o":"m 347 0 l 0 347 l 1042 347 l 1042 521 l 347 521 l 347 868 l 1042 868 l 1042 1042 l 0 1042 l 347 1389 l 1042 1389 l 1389 1042 l 1389 347 l 1042 0 l 347 0 z "},"4":{"ha":1560,"x_min":0,"x_max":1389,"o":"m 1042 0 l 1042 521 l 347 521 l 0 868 l 0 1389 l 347 1389 l 347 868 l 1042 868 l 1042 1042 l 1389 1042 l 1389 0 l 1042 0 z "},"5":{"ha":1560,"x_min":0,"x_max":1389,"o":"m 347 0 l 0 347 l 1042 347 l 1042 521 l 347 521 l 0 868 l 0 1389 l 1389 1389 l 1389 1042 l 347 1042 l 347 868 l 1042 868 l 1389 521 l 1389 347 l 1042 0 l 347 0 z "},"6":{"ha":1560,"x_min":0,"x_max":1389,"o":"m 1042 347 l 1042 521 l 347 521 l 347 347 l 1042 347 m 347 0 l 0 347 l 0 1042 l 347 1389 l 1042 1389 l 1389 1042 l 347 1042 l 347 868 l 1042 868 l 1389 521 l 1389 347 l 1042 0 l 347 0 z "},"7":{"ha":1560,"x_min":0,"x_max":1389,"o":"m 521 0 l 521 521 l 868 868 l 1042 868 l 1042 1042 l 1389 1042 l 1389 868 l 1042 521 l 868 521 l 868 0 l 521 0 m 0 1042 l 0 1389 l 1389 1389 l 1042 1042 l 0 1042 z "},"8":{"ha":1560,"x_min":0,"x_max":1389,"o":"m 1042 347 l 1042 521 l 347 521 l 347 347 l 1042 347 m 1042 868 l 1042 1042 l 347 1042 l 347 868 l 1042 868 m 347 0 l 0 347 l 0 434 l 260 694 l 0 955 l 0 1042 l 347 1389 l 1042 1389 l 1389 1042 l 1389 955 l 1128 694 l 1389 434 l 1389 347 l 1042 0 l 347 0 z "},"9":{"ha":1560,"x_min":0,"x_max":1389,"o":"m 1042 868 l 1042 1042 l 347 1042 l 347 868 l 1042 868 m 347 0 l 0 347 l 1042 347 l 1042 521 l 347 521 l 0 868 l 0 1042 l 347 1389 l 1042 1389 l 1389 1042 l 1389 347 l 1042 0 l 347 0 z "}," ":{"ha":694,"x_min":0,"x_max":0,"o":""},"!":{"ha":518,"x_min":0,"x_max":347,"o":"m 0 0 l 0 347 l 347 347 l 347 0 l 0 0 m 0 347 l 0 1389 l 347 1389 l 347 694 l 0 347 l 0 347 z "},"\"":{"ha":1213,"x_min":0,"x_max":1042,"o":"m 0 694 l 0 1389 l 347 1389 l 347 1042 l 0 694 l 0 694 m 694 694 l 694 1389 l 1042 1389 l 1042 1042 l 694 694 l 694 694 z "},"#":{"ha":1560,"x_min":0,"x_max":1389,"o":"m 868 521 l 868 868 l 521 868 l 521 521 l 868 521 m 347 0 l 347 347 l 0 347 l 0 521 l 347 521 l 347 868 l 0 868 l 0 1042 l 347 1042 l 347 1389 l 521 1389 l 521 1042 l 868 1042 l 868 1389 l 1042 1389 l 1042 1042 l 1389 1042 l 1389 868 l 1042 868 l 1042 521 l 1389 521 l 1389 347 l 1042 347 l 1042 0 l 868 0 l 868 347 l 521 347 l 521 0 l 347 0 z "},"$":{"ha":1560,"x_min":0,"x_max":1389,"o":"m 1042 347 l 1042 521 l 868 521 l 868 347 l 1042 347 m 521 868 l 521 1042 l 347 1042 l 347 868 l 521 868 m 347 0 l 0 347 l 521 347 l 521 521 l 347 521 l 0 868 l 0 1042 l 347 1389 l 1042 1389 l 1389 1042 l 868 1042 l 868 868 l 1042 868 l 1389 521 l 1389 347 l 1042 0 l 347 0 z "},"%":{"ha":1560,"x_min":0,"x_max":1389,"o":"m 694 0 l 694 347 l 1042 347 l 1042 694 l 1389 694 l 1389 0 l 694 0 m 0 694 l 0 1389 l 694 1389 l 694 1042 l 347 1042 l 347 694 l 0 694 m 0 0 l 0 260 l 1128 1389 l 1389 1389 l 1389 1128 l 260 0 l 0 0 z "},"&":{"ha":1560,"x_min":0,"x_max":1389,"o":"m 868 347 l 868 521 l 347 521 l 347 347 l 868 347 m 694 868 l 694 1042 l 347 1042 l 347 868 l 694 868 m 347 0 l 0 347 l 174 521 l 0 694 l 0 1042 l 347 1389 l 694 1389 l 1042 1042 l 1042 694 l 1389 1042 l 1389 694 l 1215 694 l 1215 347 l 1389 347 l 1389 0 l 1042 0 l 868 174 l 694 0 l 347 0 z "},"'":{"ha":518,"x_min":0,"x_max":347,"o":"m 0 694 l 0 1389 l 347 1389 l 347 1042 l 0 694 l 0 694 z "},"(":{"ha":865,"x_min":0,"x_max":694,"o":"m 347 0 l 0 347 l 0 1042 l 347 1389 l 694 1389 l 694 1042 l 347 1042 l 347 347 l 694 347 l 694 0 l 347 0 z "},")":{"ha":865,"x_min":0,"x_max":694,"o":"m 0 0 l 0 347 l 347 347 l 347 1042 l 0 1042 l 0 1389 l 347 1389 l 694 1042 l 694 347 l 347 0 l 0 0 z "},"*":{"ha":865,"x_min":0,"x_max":694,"o":"m 0 694 l 0 1042 l 347 1042 l 0 694 l 0 694 m 347 694 l 347 1042 l 694 694 l 347 694 m 347 1042 l 0 1389 l 347 1389 l 347 1042 l 347 1042 m 347 1042 l 694 1389 l 694 1042 l 347 1042 z "},"+":{"ha":1560,"x_min":174,"x_max":1215,"o":"m 521 174 l 521 521 l 174 521 l 174 868 l 521 868 l 521 1215 l 868 1215 l 868 868 l 1215 868 l 1215 521 l 868 521 l 868 174 l 521 174 z "},",":{"ha":518,"x_min":0,"x_max":347,"o":"m 0 -347 l 0 347 l 347 347 l 347 0 l 0 -347 l 0 -347 z "},"-":{"ha":1560,"x_min":174,"x_max":1215,"o":"m 174 521 l 174 868 l 1215 868 l 1215 521 l 174 521 z "},".":{"ha":518,"x_min":0,"x_max":347,"o":"m 0 0 l 0 347 l 347 347 l 347 0 l 0 0 z "},"/":{"ha":2254,"x_min":87,"x_max":1997,"o":"m 87 0 l 1476 1389 l 1997 1389 l 608 0 l 87 0 z "},":":{"ha":518,"x_min":0,"x_max":347,"o":"m 0 0 l 0 347 l 347 347 l 347 0 l 0 0 m 0 1042 l 0 1389 l 347 1389 l 347 1042 l 0 1042 z "},";":{"ha":518,"x_min":0,"x_max":347,"o":"m 0 -347 l 0 347 l 347 347 l 347 0 l 0 -347 l 0 -347 m 0 1042 l 0 1389 l 347 1389 l 347 1042 l 0 1042 z "},"<":{"ha":1560,"x_min":87,"x_max":1302,"o":"m 781 0 l 87 694 l 781 1389 l 1302 1389 l 608 694 l 1302 0 l 781 0 z "},"=":{"ha":1560,"x_min":174,"x_max":1215,"o":"m 174 174 l 174 521 l 1215 521 l 1215 174 l 174 174 m 174 868 l 174 1215 l 1215 1215 l 1215 868 l 174 868 z "},">":{"ha":1560,"x_min":87,"x_max":1302,"o":"m 87 0 l 781 694 l 87 1389 l 608 1389 l 1302 694 l 608 0 l 87 0 z "},"?":{"ha":1560,"x_min":0,"x_max":1389,"o":"m 521 0 l 521 174 l 868 521 l 868 0 l 521 0 m 694 521 l 694 521 l 521 521 l 868 868 l 1042 868 l 1042 1042 l 0 1042 l 347 1389 l 1042 1389 l 1389 1042 l 1389 868 l 1042 521 l 694 521 z "},"@":{"ha":2254,"x_min":0,"x_max":2083,"o":"m 347 0 l 0 347 l 347 347 l 347 0 l 347 0 m 1736 0 l 1736 347 l 2083 347 l 1736 0 l 1736 0 m 0 1042 l 347 1389 l 347 1042 l 0 1042 m 694 0 l 347 347 l 347 694 l 694 1042 l 1042 694 l 694 694 l 694 347 l 1389 347 l 1389 1042 l 347 1042 l 694 1389 l 1389 1389 l 1736 1042 l 1736 347 l 1389 0 l 694 0 m 1736 1042 l 1736 1389 l 2083 1042 l 1736 1042 z "},"A":{"ha":1560,"x_min":0,"x_max":1389,"o":"m 0 0 l 0 1042 l 347 1389 l 1042 1389 l 1389 1042 l 1389 0 l 1042 0 l 1042 1042 l 347 1042 l 347 694 l 1042 694 l 694 347 l 347 347 l 347 0 l 0 0 z "},"B":{"ha":1560,"x_min":0,"x_max":1389,"o":"m 694 0 l 347 347 l 1042 347 l 1042 694 l 1389 694 l 1389 347 l 1042 0 l 694 0 m 0 0 l 0 1389 l 1042 1389 l 1389 1042 l 1042 694 l 521 694 l 868 1042 l 347 1042 l 347 0 l 0 0 z "},"C":{"ha":1560,"x_min":0,"x_max":1389,"o":"m 347 0 l 0 347 l 0 1042 l 347 1389 l 1042 1389 l 1389 1042 l 347 1042 l 347 347 l 1389 347 l 1042 0 l 347 0 z "},"D":{"ha":1560,"x_min":0,"x_max":1389,"o":"m 0 0 l 0 1389 l 1042 1389 l 1389 1042 l 1389 347 l 1042 0 l 694 0 l 347 347 l 1042 347 l 1042 1042 l 347 1042 l 347 0 l 0 0 z "},"E":{"ha":1560,"x_min":0,"x_max":1389,"o":"m 0 0 l 0 1389 l 1389 1389 l 1389 1042 l 347 1042 l 347 868 l 1389 868 l 1042 521 l 347 521 l 347 347 l 1389 347 l 1042 0 l 0 0 z "},"F":{"ha":1560,"x_min":0,"x_max":1389,"o":"m 0 0 l 0 1389 l 1389 1389 l 1042 1042 l 347 1042 l 347 868 l 1389 868 l 1042 521 l 347 521 l 347 0 l 0 0 z "},"G":{"ha":1560,"x_min":0,"x_max":1389,"o":"m 347 0 l 0 347 l 0 1042 l 347 1389 l 1042 1389 l 1389 1042 l 347 1042 l 347 347 l 1042 347 l 694 694 l 1389 694 l 1389 347 l 1042 0 l 347 0 z "},"H":{"ha":1560,"x_min":0,"x_max":1389,"o":"m 0 0 l 0 347 l 347 347 l 347 0 l 0 0 m 1042 0 l 1042 521 l 347 521 l 347 347 l 0 694 l 0 1389 l 347 1389 l 347 868 l 1042 868 l 1042 1389 l 1389 1389 l 1389 0 l 1042 0 z "},"I":{"ha":518,"x_min":0,"x_max":347,"o":"m 0 0 l 0 694 l 347 694 l 347 0 l 0 0 m 347 694 l 0 1042 l 0 1389 l 347 1389 l 347 694 l 347 694 z "},"J":{"ha":1560,"x_min":0,"x_max":1389,"o":"m 347 0 l 0 347 l 0 868 l 347 521 l 347 347 l 1042 347 l 1042 1389 l 1389 1389 l 1389 347 l 1042 0 l 347 0 z "},"K":{"ha":1560,"x_min":0,"x_max":1389,"o":"m 0 0 l 0 1389 l 347 1389 l 347 868 l 868 1389 l 1389 1389 l 694 694 l 1042 694 l 1389 347 l 1389 0 l 1042 0 l 1042 347 l 694 347 l 347 694 l 347 0 l 0 0 z "},"L":{"ha":1560,"x_min":0,"x_max":1389,"o":"m 347 0 l 0 347 l 0 1389 l 347 1389 l 347 347 l 1389 347 l 1389 0 l 347 0 z "},"M":{"ha":1560,"x_min":0,"x_max":1389,"o":"m 0 0 l 0 1042 l 347 1389 l 1042 1389 l 1389 1042 l 1389 0 l 1042 0 l 1042 1042 l 868 1042 l 868 347 l 521 0 l 521 1042 l 347 1042 l 347 0 l 0 0 z "},"N":{"ha":1560,"x_min":0,"x_max":1389,"o":"m 347 0 l 0 347 l 0 1389 l 347 1389 l 347 1302 l 1042 608 l 1042 1389 l 1389 1389 l 1389 0 l 1042 0 l 1042 87 l 347 781 l 347 0 l 347 0 z "},"O":{"ha":1560,"x_min":0,"x_max":1389,"o":"m 1042 347 l 1042 1042 l 347 1042 l 347 347 l 1042 347 m 347 0 l 0 347 l 0 1042 l 347 1389 l 1042 1389 l 1389 1042 l 1389 347 l 1042 0 l 347 0 z "},"P":{"ha":1560,"x_min":0,"x_max":1389,"o":"m 0 0 l 0 1042 l 347 1389 l 1042 1389 l 1389 1042 l 1389 694 l 1042 347 l 694 347 l 347 694 l 1042 694 l 1042 1042 l 347 1042 l 347 0 l 0 0 z "},"Q":{"ha":1560,"x_min":0,"x_max":1389,"o":"m 1389 -347 l 1042 0 l 1389 0 l 1389 -347 l 1389 -347 m 1042 347 l 1042 1042 l 347 1042 l 347 347 l 1042 347 m 347 0 l 0 347 l 0 1042 l 347 1389 l 1042 1389 l 1389 1042 l 1389 347 l 1042 0 l 347 0 z "},"R":{"ha":1560,"x_min":0,"x_max":1389,"o":"m 0 0 l 0 1042 l 347 1389 l 1042 1389 l 1389 1042 l 1389 694 l 1042 347 l 1389 347 l 1389 0 l 1042 0 l 347 694 l 1042 694 l 1042 1042 l 347 1042 l 347 0 l 0 0 z "},"S":{"ha":1560,"x_min":0,"x_max":1389,"o":"m 347 0 l 0 347 l 1042 347 l 1042 521 l 347 521 l 0 868 l 0 1042 l 347 1389 l 1042 1389 l 1389 1042 l 347 1042 l 347 868 l 1042 868 l 1389 521 l 1389 347 l 1042 0 l 347 0 z "},"T":{"ha":1560,"x_min":0,"x_max":1389,"o":"m 521 0 l 521 1042 l 0 1042 l 0 1389 l 694 1389 l 1042 1042 l 868 1042 l 868 0 l 521 0 m 1042 1042 l 1042 1389 l 1389 1389 l 1389 1042 l 1042 1042 z "},"U":{"ha":1560,"x_min":0,"x_max":1389,"o":"m 347 0 l 0 347 l 0 1389 l 347 1389 l 347 347 l 1042 347 l 1042 1389 l 1389 1389 l 1389 347 l 1042 0 l 347 0 z "},"V":{"ha":1560,"x_min":0,"x_max":1389,"o":"m 347 0 l 0 347 l 0 1389 l 347 1042 l 347 347 l 1042 347 l 1042 1042 l 1389 1389 l 1389 347 l 1042 0 l 347 0 z "},"W":{"ha":1560,"x_min":0,"x_max":1389,"o":"m 347 0 l 0 347 l 0 1389 l 347 1389 l 347 347 l 521 347 l 521 1389 l 868 1042 l 868 347 l 1042 347 l 1042 1389 l 1389 1389 l 1389 347 l 1042 0 l 347 0 z "},"X":{"ha":1560,"x_min":0,"x_max":1389,"o":"m 0 0 l 0 434 l 260 694 l 0 955 l 0 1389 l 347 1389 l 347 868 l 1042 868 l 1042 1389 l 1389 1389 l 1389 955 l 1128 694 l 1389 434 l 1389 0 l 1042 0 l 1042 521 l 347 521 l 347 0 l 0 0 z "},"Y":{"ha":1560,"x_min":0,"x_max":1389,"o":"m 521 0 l 521 521 l 347 521 l 0 868 l 0 1389 l 347 1389 l 347 868 l 1042 868 l 1042 1389 l 1389 1389 l 1389 868 l 1042 521 l 868 521 l 868 0 l 521 0 z "},"Z":{"ha":1560,"x_min":0,"x_max":1389,"o":"m 347 0 l 0 347 l 0 521 l 347 868 l 1042 868 l 1042 1042 l 87 1042 l 87 1389 l 1042 1389 l 1389 1042 l 1389 868 l 1042 521 l 347 521 l 347 347 l 1302 347 l 1302 0 l 347 0 z "},"[":{"ha":865,"x_min":0,"x_max":694,"o":"m 0 0 l 0 1389 l 694 1389 l 694 1042 l 347 1042 l 347 347 l 694 347 l 694 0 l 0 0 z "},"\\":{"ha":2254,"x_min":87,"x_max":1997,"o":"m 1476 0 l 87 1389 l 608 1389 l 1997 0 l 1476 0 z "},"]":{"ha":865,"x_min":0,"x_max":694,"o":"m 0 0 l 0 347 l 347 347 l 347 1042 l 0 1042 l 0 1389 l 694 1389 l 694 0 l 0 0 z "},"^":{"ha":1560,"x_min":87,"x_max":1302,"o":"m 87 694 l 694 1302 l 1302 694 l 781 694 l 694 781 l 608 694 l 87 694 z "},"_":{"ha":1560,"x_min":0,"x_max":1389,"o":"m 0 0 l 0 347 l 1389 347 l 1389 0 l 0 0 z "},"`":{"ha":518,"x_min":0,"x_max":347,"o":"m 347 694 l 0 1042 l 0 1389 l 347 1389 l 347 694 l 347 694 z "},"a":{"ha":1560,"x_min":0,"x_max":1389,"o":"m 347 0 l 0 347 l 0 694 l 347 1042 l 694 694 l 347 694 l 347 347 l 1042 347 l 1042 1042 l 0 1042 l 347 1389 l 1042 1389 l 1389 1042 l 1389 347 l 1042 0 l 347 0 z "},"b":{"ha":1560,"x_min":0,"x_max":1389,"o":"m 0 0 l 0 1389 l 347 1389 l 347 347 l 1042 347 l 1042 868 l 347 868 l 694 1215 l 1042 1215 l 1389 868 l 1389 347 l 1042 0 l 0 0 z "},"c":{"ha":1560,"x_min":0,"x_max":1389,"o":"m 347 0 l 0 347 l 0 1042 l 347 1389 l 1042 1389 l 1389 1042 l 347 1042 l 347 347 l 1389 347 l 1042 0 l 347 0 z "},"d":{"ha":1560,"x_min":0,"x_max":1389,"o":"m 347 0 l 0 347 l 0 868 l 347 1215 l 694 1215 l 1042 868 l 347 868 l 347 347 l 1042 347 l 1042 1389 l 1389 1389 l 1389 0 l 347 0 z "},"e":{"ha":1560,"x_min":0,"x_max":1389,"o":"m 1042 347 l 694 694 l 1042 694 l 1042 1042 l 347 1042 l 347 347 l 1042 347 m 347 0 l 0 347 l 0 1042 l 347 1389 l 1042 1389 l 1389 1042 l 1389 694 l 1042 347 l 1389 347 l 1042 0 l 347 0 z "},"f":{"ha":1560,"x_min":0,"x_max":1389,"o":"m 0 0 l 0 1042 l 347 1389 l 1389 1389 l 1042 1042 l 347 1042 l 347 868 l 1389 868 l 1042 521 l 347 521 l 347 0 l 0 0 z "},"g":{"ha":1560,"x_min":0,"x_max":1389,"o":"m 347 0 l 0 347 l 1042 347 l 1042 1042 l 347 1042 l 347 694 l 694 694 l 347 347 l 0 694 l 0 1042 l 347 1389 l 1042 1389 l 1389 1042 l 1389 347 l 1042 0 l 347 0 z "},"h":{"ha":1560,"x_min":0,"x_max":1389,"o":"m 0 0 l 0 1389 l 347 1389 l 347 1042 l 1042 1042 l 1389 694 l 1389 0 l 1042 0 l 1042 694 l 347 694 l 347 0 l 0 0 z "},"i":{"ha":518,"x_min":0,"x_max":347,"o":"m 0 0 l 0 694 l 347 694 l 347 0 l 0 0 m 0 694 l 0 1389 l 347 1389 l 347 1042 l 0 694 l 0 694 z "},"j":{"ha":1560,"x_min":0,"x_max":1389,"o":"m 347 0 l 0 347 l 0 868 l 347 521 l 347 347 l 1042 347 l 1042 694 l 1389 694 l 1389 347 l 1042 0 l 347 0 m 1042 694 l 1042 1389 l 1389 1389 l 1389 1042 l 1042 694 l 1042 694 z "},"k":{"ha":1560,"x_min":0,"x_max":1389,"o":"m 0 0 l 0 1389 l 347 1389 l 347 694 l 694 1042 l 1042 1042 l 1042 1389 l 1389 1389 l 1389 1042 l 1042 694 l 694 694 l 1389 0 l 868 0 l 347 521 l 347 0 l 0 0 z "},"l":{"ha":1560,"x_min":0,"x_max":1389,"o":"m 347 0 l 0 347 l 0 1389 l 347 1389 l 347 347 l 1389 347 l 1042 0 l 347 0 z "},"m":{"ha":1560,"x_min":0,"x_max":1389,"o":"m 0 0 l 0 1042 l 347 1389 l 1042 1389 l 1389 1042 l 1389 0 l 1042 0 l 1042 1042 l 868 1042 l 868 0 l 521 347 l 521 1042 l 347 1042 l 347 0 l 0 0 z "},"n":{"ha":1560,"x_min":0,"x_max":1389,"o":"m 0 0 l 0 1042 l 347 1389 l 1042 1389 l 1389 1042 l 1389 0 l 1042 0 l 1042 1042 l 347 1042 l 347 0 l 0 0 z "},"o":{"ha":1560,"x_min":0,"x_max":1389,"o":"m 1042 347 l 1042 1042 l 347 1042 l 347 347 l 1042 347 m 347 0 l 0 347 l 0 1042 l 347 1389 l 1042 1389 l 1389 1042 l 1389 347 l 1042 0 l 347 0 z "},"p":{"ha":1560,"x_min":0,"x_max":1389,"o":"m 1042 694 l 1042 1042 l 347 1042 l 347 694 l 1042 694 m 0 0 l 0 1042 l 347 1389 l 1042 1389 l 1389 1042 l 1389 694 l 1042 347 l 347 347 l 347 0 l 0 0 z "},"q":{"ha":1560,"x_min":0,"x_max":1389,"o":"m 1389 -347 l 1042 0 l 1389 0 l 1389 -347 l 1389 -347 m 1042 347 l 1042 1042 l 347 1042 l 347 347 l 1042 347 m 347 0 l 0 347 l 0 1042 l 347 1389 l 1042 1389 l 1389 1042 l 1389 347 l 1042 0 l 347 0 z "},"r":{"ha":1560,"x_min":0,"x_max":1389,"o":"m 0 0 l 0 1042 l 347 1389 l 1042 1389 l 1389 1042 l 1389 694 l 1042 347 l 1389 347 l 1389 0 l 1042 0 l 694 347 l 347 347 l 694 694 l 1042 694 l 1042 1042 l 347 1042 l 347 0 l 0 0 z "},"s":{"ha":1560,"x_min":0,"x_max":1389,"o":"m 347 0 l 0 347 l 1042 347 l 1042 521 l 347 521 l 0 868 l 0 1042 l 347 1389 l 1042 1389 l 1389 1042 l 347 1042 l 347 868 l 1042 868 l 1389 521 l 1389 347 l 1042 0 l 347 0 z "},"t":{"ha":1560,"x_min":0,"x_max":1389,"o":"m 347 0 l 0 347 l 0 694 l 347 694 l 347 347 l 1389 347 l 1042 0 l 347 0 m 347 694 l 0 1042 l 0 1389 l 347 1389 l 347 1042 l 1042 1042 l 1042 694 l 347 694 z "},"u":{"ha":1560,"x_min":0,"x_max":1389,"o":"m 347 0 l 0 347 l 0 1389 l 347 1389 l 347 347 l 1042 347 l 1042 1389 l 1389 1389 l 1389 0 l 347 0 z "},"v":{"ha":1560,"x_min":0,"x_max":1389,"o":"m 347 0 l 0 347 l 0 1389 l 347 1042 l 347 347 l 1042 347 l 1042 1042 l 1389 1389 l 1389 347 l 1042 0 l 347 0 z "},"w":{"ha":1560,"x_min":0,"x_max":1389,"o":"m 347 0 l 0 347 l 0 1389 l 347 1389 l 347 347 l 521 347 l 521 1042 l 868 1389 l 868 347 l 1042 347 l 1042 1389 l 1389 1389 l 1389 347 l 1042 0 l 347 0 z "},"x":{"ha":1560,"x_min":0,"x_max":1389,"o":"m 0 0 l 0 434 l 260 694 l 0 955 l 0 1389 l 347 1389 l 347 868 l 1042 868 l 1042 1389 l 1389 1389 l 1389 955 l 1128 694 l 1389 434 l 1389 0 l 1042 0 l 1042 521 l 347 521 l 347 0 l 0 0 z "},"y":{"ha":1560,"x_min":0,"x_max":1389,"o":"m 347 0 l 0 347 l 1042 347 l 1042 521 l 347 521 l 0 868 l 0 1389 l 347 1389 l 347 868 l 1042 868 l 1042 1389 l 1389 1389 l 1389 347 l 1042 0 l 347 0 z "},"z":{"ha":1560,"x_min":0,"x_max":1389,"o":"m 347 0 l 0 347 l 0 521 l 347 868 l 1042 868 l 1042 1042 l 87 1042 l 87 1389 l 1042 1389 l 1389 1042 l 1389 868 l 1042 521 l 347 521 l 347 347 l 1302 347 l 1302 0 l 347 0 z "},"{":{"ha":865,"x_min":0,"x_max":694,"o":"m 347 0 l 0 347 l 347 694 l 347 347 l 694 347 l 694 0 l 347 0 m 0 694 l 0 1042 l 347 1389 l 694 1389 l 694 1042 l 347 1042 l 0 694 l 0 694 z "},"|":{"ha":518,"x_min":0,"x_max":347,"o":"m 0 0 l 0 1389 l 347 1389 l 347 0 l 0 0 z "},"}":{"ha":865,"x_min":0,"x_max":694,"o":"m 0 0 l 0 347 l 347 347 l 694 694 l 694 347 l 347 0 l 0 0 m 347 694 l 347 1042 l 0 1042 l 0 1389 l 347 1389 l 694 1042 l 347 694 l 347 694 z "},"~":{"ha":1560,"x_min":0,"x_max":1389,"o":"m 0 1042 l 0 1389 l 694 1389 l 347 1042 l 0 1042 m 694 1042 l 1042 1389 l 1389 1389 l 1389 1042 l 694 1042 z "}}}
